<svg width="1220" height="158" viewBox="0 0 1220 158" fill="none" xmlns="http://www.w3.org/2000/svg">
<path d="M119.46 79.1628C135.992 79.1628 152.573 79.1628 169.105 79.1628C158.439 82.3256 156.694 90.2326 156.936 99.3489C157.276 111.023 156.258 122.744 157.518 134.419C157.809 137.209 155.821 138.372 153.979 139.674C140.889 148.791 126.15 154.14 110.297 156.419C86.4437 159.86 63.1239 158.186 41.5009 146.977C17.163 134.326 3.6365 114.651 0.630614 88C-5.42963 34.4186 35.9255 4.13955 78.7835 0.837227C105.449 -1.2558 130.271 3.34885 153.785 15.3489C157.615 17.3023 159.167 18.9768 157.13 23.3489C154.367 29.2093 152.573 35.4884 150.343 41.6279C148.161 41.0233 148.695 39.2093 148.258 37.907C141.422 17.7209 123.193 4.41862 100.455 3.25583C87.4133 2.60467 74.5171 3.16281 62.2997 8.23258C40.5798 17.3023 29.6713 34.4186 25.5503 55.7209C22.0596 73.7209 22.1566 91.9535 27.6351 109.674C35.4891 135.163 55.4152 151.767 84.4559 154C93.8129 154.698 102.976 154.372 112.139 152.791C126.102 150.372 134.392 142.744 137.107 129.256C139.241 118.744 138.901 108.233 137.689 97.7209C136.526 87.2093 130.32 81.1163 119.46 79.1628Z" fill="#170500"/>
<path d="M701.583 38.4651C696.928 19.5349 685.39 8.93025 667.306 5.06979C650.24 1.39537 633.805 2.79072 619.066 12.7442C610.776 18.3721 605.637 25.9535 605.491 36.093C605.297 47.3954 610.582 55.4884 621.684 60.0465C633.175 64.7442 645.489 66.1861 657.707 68C670.651 69.9535 683.79 71.0233 695.862 76.6047C713.994 84.9302 721.072 99.907 715.303 118.372C709.34 137.488 694.359 148.326 675.596 153.349C642.726 162.093 610.582 157.721 579.505 144.884C577.323 144 575.869 142.93 576.645 140.326C579.36 131.302 582.026 122.233 585.177 111.488C588.765 125.907 596.134 136.047 607.334 143.628C627.89 157.488 660.373 158 679.523 144.512C690.626 136.698 696.444 126.186 694.989 112.884C693.535 99.7209 683.547 91.1628 667.015 88C651.695 85.0698 635.987 84.4186 620.86 80.2326C613.976 78.3256 607.285 76 601.177 72.2791C582.075 60.7442 578.438 37.6744 593.371 21.3489C604.522 9.16281 619.357 3.48839 635.599 1.30234C659.646 -1.90696 682.917 1.5349 705.461 10.1396C709.34 11.6279 710.309 13.2093 708.855 17.0233C706.334 23.5349 704.298 30.2791 701.583 38.4651Z" fill="#170500"/>
<path d="M1081.05 152.884C1067.48 152.465 1054.39 152.884 1040.42 153.581C1068.84 126.977 1081.3 92.3256 1098.55 60.5116C1108.88 41.4419 1118.43 22 1128.32 2.69769C1128.66 2.04652 1129.2 1.48838 1130.07 0.325592C1135.26 9.86048 1140.25 18.9768 1145.24 28.1395C1163.47 61.4419 1180.88 95.1163 1199.88 128.047C1205.22 137.302 1210.94 146.279 1219.95 153.256C1204.2 152.093 1188.59 153.349 1171.04 153.674C1181.75 147.814 1180.49 139.953 1177.73 132.465C1171.86 116.744 1163.57 102.047 1156.39 86.8837C1155.52 85.0698 1154.26 84.5582 1152.37 84.4651C1132.83 83.4884 1113.29 83.4884 1093.76 84.4186C1091.52 84.5116 1090.31 85.3488 1089.44 87.3023C1083.82 99.6744 1077.22 111.674 1073 124.605C1072.18 127.07 1071.4 129.581 1071.02 132.093C1069.66 140.93 1071.84 148.372 1081.05 152.884ZM1152.95 80.1861C1142.92 60.1395 1133.32 40.9768 1123.23 20.9302C1113.58 40.1861 1104.52 58.3256 1095.35 76.4186C1093.85 79.3954 1094.48 80.2326 1097.88 80.1861C1115.81 80.1395 1133.8 80.1861 1152.95 80.1861Z" fill="#170500"/>
<path d="M274.119 157.395C238.97 156.837 210.656 143.674 195.384 112.605C171.095 63.2558 201.493 7.67443 260.059 0.883728C283.088 -1.76743 304.857 1.30233 324.589 13.3954C352.369 30.4651 366.38 60.8837 359.835 92.3721C352.999 125.116 331.182 145.163 298.263 154.651C290.458 156.884 282.264 157.302 274.119 157.395ZM338.261 76.3256C337.631 70.9768 337.097 63.3488 335.788 55.907C330.843 27.814 311.014 1.76745 271.695 3.02326C246.775 3.81396 226.946 15.3488 218.026 37.7209C207.263 64.6977 207.117 92.1861 218.268 119.07C227.625 141.488 245.757 153.442 271.065 154.465C296.178 155.488 315.232 145.488 327.449 124.233C335.643 110 337.437 94.3721 338.261 76.3256Z" fill="#170500"/>
<path d="M384.318 78.186C384.318 37.2558 414.183 5.62791 456.944 0.930234C485.888 -2.27907 512.165 3.06977 533.643 22.8837C566.223 52.9767 566.029 102.186 534.322 133.209C498.009 168.744 426.692 165.674 396.681 120.93C388.488 108.698 384.318 94.7907 384.318 78.186ZM470.81 3.16279C443.03 3.16279 423.104 15.3488 414.086 39.2558C404.681 64.2326 404.487 89.8139 413.311 114.977C422.134 140.093 442.497 154 469.065 154.512C496.457 155.07 517.644 142 527.631 117.116C537.328 92.9302 537.328 68.1395 529.134 43.5814C520.262 17.0233 499.802 3.16279 470.81 3.16279Z" fill="#170500"/>
<path d="M888.673 124.977C885.861 133.256 882.855 141.442 880.383 149.767C879.268 153.488 876.601 152.884 874.032 152.884C844.943 152.884 815.902 152.884 786.813 152.884C771.735 152.884 756.657 152.884 739.785 152.884C751.566 146.093 751.76 135.86 752.245 125.953C753.942 92.3721 752.827 58.7442 753.021 25.1628C753.069 17.3023 752.39 9.39535 742.015 4.37209C745.991 4.37209 748.173 4.37209 750.354 4.37209C788.316 4.37209 826.325 4.46512 864.287 4.23256C869.087 4.18605 871.026 5.67442 872.383 9.86047C874.807 17.3953 877.862 24.7907 880.286 31.3488C878.444 30.093 875.826 28.6977 873.741 26.7907C860.748 14.9302 844.797 10.186 827.392 8.74419C811.151 7.34884 794.909 7.67442 778.619 7.5814C773.723 7.53488 771.589 8.60465 771.686 14.0465C772.123 31.6744 771.929 49.3488 771.783 66.9767C771.735 70.6512 772.559 72.186 776.825 72.1395C790.982 72 805.139 72.6977 819.247 72.2326C834.228 71.7674 848.87 69.6744 857.548 55.1163C857.548 67.6744 857.548 80.2326 857.548 94.1861C847.609 77.0698 831.416 75.907 814.884 75.6744C802.278 75.4884 789.673 75.7674 777.116 75.6279C773.189 75.5814 771.735 76.7442 771.783 80.7442C772.026 97.2558 771.783 113.814 771.977 130.326C772.123 144.233 777.068 149.023 791.612 149.302C807.854 149.581 824.095 149.721 840.288 147.535C859.099 144.977 874.953 137.721 887.607 124.093C887.995 124.372 888.334 124.651 888.673 124.977Z" fill="#170500"/>
<path d="M887.707 124.046C888.192 123.721 888.337 122.512 889.161 123.116C889.695 123.535 889.355 124.465 888.677 124.977C888.337 124.651 887.998 124.372 887.707 124.046Z" fill="#170500"/>
<path d="M891.002 3.11627C905.934 4.37209 919.218 4.97674 934.151 3.11627C923.048 9.76743 926.2 17.4884 930.078 24.8837C945.884 54.9767 961.98 84.9767 977.93 115.023C980.791 120.419 983.748 125.767 987.142 132.14C990.826 124.605 994.075 118 997.274 111.349C1008.86 87.1163 1020.45 62.8837 1031.89 38.5581C1033.88 34.3721 1035.33 29.907 1036.5 25.4419C1038.53 17.5349 1038.63 9.90697 1029.08 4.37209C1041.64 4.37209 1052.88 4.37209 1064.32 4.37209C1036.79 32.2791 1024.33 68.186 1006.97 101.395C997.517 119.395 988.79 137.767 979.53 156.326C977.203 154.744 976.621 152.558 975.651 150.698C955.144 111.442 934.733 72.093 914.079 32.9302C908.455 22.3256 902.153 12.0465 891.002 3.11627Z" fill="#170500"/>
</svg>
