<svg width="1223" height="158" viewBox="0 0 1223 158" fill="none" xmlns="http://www.w3.org/2000/svg">
<path d="M846.959 119.175C846.493 93.7107 847.704 69.7826 846.167 45.901C845.842 41.1061 845.609 36.3112 845.05 31.4697C843.7 20.1574 839.65 10.7537 829.735 4.00359C842.63 4.70188 855.338 4.84154 868.419 3.67772C852.824 13.3141 852.173 29.0955 851.381 44.4579C849.566 79.7449 850.869 115.078 850.543 150.365C850.543 152.367 850.543 154.415 850.543 158C810.695 109.213 768.846 64.0566 727.322 18.947C726.158 19.0401 726.204 19.6919 726.204 20.2039C726.297 48.4615 726.297 76.719 726.623 104.976C726.716 112.751 727.554 120.525 728.578 128.253C729.882 138.122 733.513 146.827 744.034 152.74C730.208 152.74 717.965 152.74 704.604 152.74C717.872 144.733 719.641 132.07 720.711 119.222C723.272 88.4037 721.596 57.5392 721.829 26.7213C721.922 17.4108 719.315 9.45026 709.12 4.98119C713.682 3.25874 717.546 5.12085 721.13 4.37601C734.816 1.48974 743.382 7.6347 751.994 18.016C778.156 49.7184 806.226 79.7449 835.647 108.421C838.999 111.68 842.397 114.846 846.959 119.175Z" fill="white"/>
<path d="M650.325 153.95C660.52 147.991 659.728 140.543 656.935 132.768C651.256 117.034 643.342 102.323 636.453 87.1468C635.522 85.0984 634.078 84.6795 632.077 84.5863C613.503 83.6553 594.929 83.6087 576.355 84.5863C574.539 84.6795 573.189 85.0053 572.351 86.8674C566.486 100.275 559.55 113.263 555.453 127.368C552.474 137.563 552.939 146.967 565.136 153.345C551.031 153.159 538.462 152.786 525.381 153.997C557.501 120.153 571.234 76.6258 592.322 37.2888C598.699 25.4178 604.379 13.1279 610.896 0.0465698C614.573 7.07603 617.832 13.2675 621.044 19.4125C640.037 55.5374 658.192 92.0813 677.883 127.834C683.097 137.238 688.637 146.455 698.785 154.09C682.259 152.414 667.27 153.438 650.325 153.95ZM605.17 22.3919C604.425 22.5315 604.146 22.485 604.099 22.6247C595.208 40.9664 586.41 59.3082 577.425 77.6034C576.168 80.2104 577.379 80.3966 579.381 80.3966C596.139 80.3966 612.851 80.3501 629.61 80.3966C632.496 80.3966 632.635 79.419 631.472 77.1379C628.678 71.505 626.118 65.7325 623.372 60.0531C617.32 47.4373 611.175 34.8215 605.17 22.3919Z" fill="white"/>
<path d="M428.46 126.158C446.056 86.4019 463.327 47.6235 480.318 8.75194C481.948 4.98117 483.903 3.91046 487.766 4.05011C495.168 4.32943 502.616 4.14322 511.321 4.14322C502.709 9.91576 501.732 17.8763 501.732 26.1161C501.732 58.6565 501.732 91.1968 501.872 123.737C501.872 127.787 502.384 131.884 503.128 135.887C504.432 143.057 507.039 149.527 514.301 153.298C499.963 153.252 485.718 152.553 471.101 153.624C484.461 145.524 483.298 131.93 483.53 119.78C484.229 84.307 483.763 48.8339 482.972 12.9882C461.884 60.8445 440.796 108.701 419.196 157.814C399.133 109.911 377.533 63.7773 353.186 18.7142C353.186 20.4367 353.186 22.2057 353.186 23.9281C353.186 49.7649 353.233 75.6017 353.14 101.485C353.093 110.796 353.884 120.06 355.467 129.184C357.19 139.1 361.612 147.433 370.55 153.298C357.283 153.019 344.109 152.74 329.538 154.229C332.797 151.622 335.124 149.993 337.173 148.038C344.947 140.543 346.762 130.58 347.554 120.572C349.928 89.5675 348.717 58.5168 348.81 27.5127C348.857 17.8297 345.831 9.58989 336.428 4.42254C342.2 4.42254 348.112 5.35359 353.652 4.23632C366.081 1.76903 371.109 7.58812 375.624 18.4815C389.869 52.9305 406.674 86.2157 424.503 118.989C425.667 121.084 426.831 123.179 428.46 126.158Z" fill="white"/>
<path d="M45.0153 153.95C29.4205 152.833 14.943 152.786 0 153.624C13.4999 146.455 12.1965 133.374 12.4292 121.735C13.081 87.752 12.7086 53.7219 12.7086 19.6918C12.7086 13.3607 10.2413 8.28643 3.30515 4.65532C16.2465 3.91047 28.0705 5.21395 40.3136 3.77081C29.9791 9.91577 30.7705 19.785 30.8171 29.4214C30.8171 45.7614 30.8171 62.0548 30.8171 78.1621C31.9343 79.0466 32.5395 78.5811 33.0981 78.069C51.2997 62.4738 70.1531 47.67 87.7495 31.33C91.846 27.5127 95.7564 23.5092 98.6891 18.7608C101.529 14.1521 103.624 9.45025 98.7822 4.51566C111.165 4.51566 122.989 4.51566 134.766 4.51566C119.032 14.1986 104.322 24.9058 89.984 36.2646C75.5996 47.6235 61.3548 59.1686 46.4584 71.1326C55.21 72.5758 63.3565 72.6223 71.2237 74.6241C83.1409 77.6966 92.6374 84.1208 99.6667 93.8969C107.58 104.883 114.936 116.289 122.617 127.461C128.948 136.679 136.07 145.151 145.939 153.159C134.999 153.159 125.317 153.252 115.634 153.112C113.074 153.065 112.236 150.365 111.072 148.596C100.039 132.489 89.2392 116.289 78.1599 100.228C73.8306 93.9435 68.71 88.264 62.9376 83.2363C58.2359 79.1397 53.0221 75.7879 46.4584 76.3C37.0084 77.0448 31.3291 83.1898 30.9567 94.0831C30.4447 108.375 30.6774 122.667 32.8188 136.865C33.8895 144.081 36.1239 147.153 45.0153 153.95Z" fill="white"/>
<path d="M1051.09 152.74C1055 148.131 1059.05 143.708 1062.72 138.96C1075.2 122.853 1083.67 104.464 1092.61 86.3088C1106.3 58.5634 1119.98 30.7714 1133.67 3.02596C1134.09 2.23457 1134.6 1.48972 1135.39 0.0931396C1143.3 15.3624 1150.94 30.0731 1158.57 44.7838C1171.42 69.4567 1184.18 94.1297 1197.26 118.71C1203.87 131.093 1210.2 143.801 1222.95 153.997C1206.24 152.321 1191.3 153.531 1174.54 153.903C1184.78 148.271 1184.13 140.776 1181.29 132.955C1175.61 117.22 1167.74 102.509 1160.81 87.333C1159.88 85.2847 1158.57 84.726 1156.53 84.5864C1137.95 83.6553 1119.38 83.6087 1100.8 84.5864C1099.08 84.6795 1097.59 84.9122 1096.75 86.8209C1090.28 101.764 1082.14 116.009 1078.83 132.163C1077.11 140.45 1079.3 147.2 1086.84 151.762C1086.33 152.74 1085.39 152.786 1084.46 152.786C1073.38 152.786 1062.26 152.786 1051.09 152.74ZM1128.92 21.0419C1119.33 41.013 1110.07 60.4255 1100.62 80.0707C1119.8 80.0707 1138.23 80.0707 1156.9 80.0707C1156.53 78.9069 1156.43 78.1621 1156.11 77.5103C1147.21 58.9823 1138.32 40.5009 1128.92 21.0419Z" fill="white"/>
<path d="M232.198 157.581C199.612 157.022 173.171 144.5 158.042 114.985C132.997 66.2446 161.114 7.77433 219.304 0.97763C247.095 -2.28106 272.372 3.25871 292.901 23.1367C314.548 44.0855 320.739 70.155 313.151 98.7384C305.284 128.579 284.569 146.455 255.381 154.928C247.84 157.116 240.019 157.535 232.198 157.581ZM171.169 78.3948C171.402 86.1692 172.007 94.3624 173.59 102.37C174.521 107.071 175.918 111.727 177.547 116.242C186.345 140.357 205.524 154.183 230.709 154.788C256.405 155.393 276.795 142.731 286.291 118.896C297.138 91.7089 296.858 64.0566 285.826 37.0095C279.122 20.5763 266.693 9.49678 249.003 4.93461C241.695 3.02595 234.247 2.93285 226.845 3.35182C210.645 4.18977 197.005 10.4278 186.857 23.4161C174.288 39.4767 172.054 58.5634 171.169 78.3948Z" fill="white"/>
<path d="M879.963 153.159C892.718 146.967 892.253 134.91 892.439 124.11C893.044 90.3123 892.718 56.4685 892.765 22.6246C892.765 15.2228 891.135 8.70537 883.92 4.42252C899.654 4.42252 915.342 4.37597 931.076 4.42252C948.533 4.46907 965.99 3.72423 983.261 7.58811C1035.4 19.2263 1050.67 66.1514 1033.91 107.723C1022.92 134.956 1001.32 149.062 972.554 152.833C950.861 155.672 929.121 153.345 907.428 153.159C898.49 153.112 889.599 153.159 879.963 153.159ZM910.827 60.8444C910.827 75.1361 910.547 89.4744 910.92 103.766C911.199 114.334 910.873 124.948 912.642 135.422C914.085 143.895 918.275 147.991 926.794 149.574C936.569 151.39 946.485 151.25 956.261 150.505C984.936 148.41 1007.09 133.281 1014.73 104.185C1019.01 87.9381 1018.92 71.5516 1015.71 55.1185C1011.05 31.5162 996.574 17.178 973.531 11.3589C954.585 6.56395 935.219 7.21569 915.901 8.23985C911.944 8.47261 910.687 9.82264 910.733 13.9193C910.966 29.6076 910.827 45.2027 910.827 60.8444Z" fill="white"/>
</svg>
